<?xml version="1.0" encoding="utf-8"?>
<!-- Generator: Adobe Illustrator 18.0.0, SVG Export Plug-In . SVG Version: 6.00 Build 0)  -->
<!DOCTYPE svg PUBLIC "-//W3C//DTD SVG 1.1//EN" "http://www.w3.org/Graphics/SVG/1.1/DTD/svg11.dtd">
<svg version="1.1" id="Layer_1" xmlns="http://www.w3.org/2000/svg" xmlns:xlink="http://www.w3.org/1999/xlink" x="0px" y="0px"
	 width="202px" height="132px" viewBox="0 0 202 132" enable-background="new 0 0 202 132" xml:space="preserve">
<g>
	<path fill="#090D15" d="M150.9,39.6c4.8-0.2,8.7,4.5,8,10.4c-0.8,5.9-6.5,8.1-9.6,7.9c-3.1-0.2-3.5-2.6-2.5-3.3
		c1-0.7,1.4-4.3,0.1-6.4C145.6,46.2,144.4,39.9,150.9,39.6z"/>
	<path fill="#090D15" d="M62.8,35.4c0-14.5-9.5-34.4-25-34.4C28,1,19.7,8.7,17,13.6c0,0,0,0,0-0.1c-0.6,1-1.3,2.3-2.1,3.7
		c-0.1,0.2-0.3,0.3-0.6,0.3c-0.1,0-0.2,0-0.3-0.1c-0.3-0.2-0.4-0.6-0.3-0.9c1.1-2,2-3.5,2.7-4.8c-1.4-3.6-4.3-7.4-10.7-5.7
		c-9,2.4-3.3,25.6,1.1,49.4C11.3,79.4,20.4,110,25.1,126c0.5,1.8,3.9,7.2,9.7,4.6c3.9-1.8,4.9-5.9,4-8.7c-2-6.1-9.4-31-10.9-37.3
		c-1.7-7-3.5-13.9-4.8-18.7c-2.8-2.4-4.6-4.7-4.7-4.8c-0.2-0.3-0.2-0.7,0.1-0.9c0.3-0.2,0.7-0.2,0.9,0.1c0,0,1.2,1.5,3.1,3.3
		c0,0,0,0,0,0c3.2,2.6,8.4,6.5,15.9,6.3C55.5,69.4,62.8,47.6,62.8,35.4z M36.8,54.9c-8.8-0.6-13-13.3-12.7-19.7
		c0.4-11.6,6.7-18.1,13.5-18.4c0,0,0,0,0.1,0c0,0,0.1,0,0.3,0c0.2,0,0.5,0,0.7,0c0.6,0,1.2,0.1,1.8,0.3c3.6,0.8,9.6,3.7,10.5,14
		c0,0.4-0.2,0.7-0.6,0.7c0,0,0,0-0.1,0c-0.3,0-0.6-0.3-0.7-0.6c-0.5-5.2-2.3-8.4-4.3-10.3c2.9,4.5,3.5,11.5,3.4,15.4
		C48.1,47.9,43.3,55.3,36.8,54.9z"/>
	<path fill="#090D15" d="M197,109.5c-1.1,0-2,0.4-2.8,1.1c-0.4,0.4-4.9,4.6-11.2,4.8c-12,0.3-15.7-11.4-15.7-19.9
		c0-10.5,7.8-17.4,14.1-17.4c2,0,3.6,0.4,4.8,1c-0.3-1.3-0.2-2.6,0.3-3.9c0.1-0.3,0.5-0.5,0.8-0.4c0.3,0.1,0.5,0.5,0.4,0.8
		c-0.5,1.4-0.4,3.1,0.2,4.5c0,0,0,0,0,0c0.1,0,0.1,0.1,0.1,0.1c0.3,0.6,0.7,1.1,1.1,1.6c0.9,0.9,2.4,2,4.7,1.8
		c4.5-0.4,5.8-4.5,5.7-6.6c-0.2-4.4-5.9-8.3-12.7-9.7c-10.3-2.2-28.3,5.8-29.1,27.3c0,0.4,0,0.7,0,1.1c0,0.1,0,0.1,0,0.2
		c-0.1,2,0.1,5.3-0.5,8.5c-1.2,6.7-3.6,7.9-5.8,7.3c-0.4-0.1-0.8-0.6-1.1-1c-0.3-0.4-0.7-1-1-1.7c-0.6-1.4-0.9-3.3-1.1-5.3
		c-0.1-2-0.1-4,0-6c0.3-4,0.9-7.9,1.6-11.2c0.7-3.3,1.4-6,1.9-7.9c0.3-0.9,0.5-1.7,0.6-2.2c0.1-0.5,0.2-0.7,0.2-0.7l0-0.1
		c0.1-0.2,0.1-0.4,0.2-0.7c0.8-3.8-1.6-7.5-5.4-8.3c-3.8-0.8-7.5,1.6-8.3,5.4c0,0-0.1,0.3-0.2,0.9c-0.1,0.6-0.3,1.4-0.5,2.5
		c-0.4,2.2-0.9,5.2-1.3,9c-0.1,0.6-0.1,1.3-0.2,1.9c0,0.1-0.1,0.2-0.1,0.4c-0.1,1-0.1,2-0.2,3c-0.1,1.1-0.1,2.3-0.1,3.5
		c-0.2,4.9-0.4,8.7-2.1,8.6c-5.5-0.2,8.4-47.3-9.8-47.5c-8.4-0.1-13.6,6.2-14.6,10.7c0.5-10.1-3.4-18.2-10.5-18.2
		c-7.1,0-11.2,7.1-11,19.9c0.1,5.6,0.1,39.2,0.1,42.3c0,0.9-0.7,2.2-2.2,2.2c-1.7,0-2.2-1.1-2.2-2.1c0-7.6-0.2-32.9-0.2-37.5
		c0-2.6-2-5.1-5.1-5.1c-2.6,0-4.8,2-5.1,4.5c1.5,1.1,3.1,3,3.9,6.1c0.1,0.3-0.1,0.7-0.5,0.8c-0.1,0-0.1,0-0.2,0
		c-0.3,0-0.5-0.2-0.6-0.5c-0.9-3.2-2.6-4.9-4-5.8c-0.7-0.3-1.4-0.7-2.1-0.9c0,0,0,0,0,0c-0.1,0-0.2,0-0.2-0.1
		c-6-2.1-14-1.5-23.4,6.9c-12,10.7-14.1,33.4-2.8,41c7.9,5.4,18.2,0.7,24-5.5c2.9-3.1,6.9-10.3,6.9-5.2c0,5.4,3.5,12.8,12,12.8
		c10,0,11.8-8.7,11.8-11.3c0-9.2,0.5-42.2,0.5-44c0-1.2,0.2-2,1.3-2.1c1.3-0.2,1.5,1,1.5,1.9c0,5.9,0.6,31,0.7,33.7
		c0.3,9.6-0.9,20.4,6.5,20.5c2.8,0,4.6-1.8,5.5-3.3c1.7-2.9,0.1-23.9,0.1-29.6c0-5.1-0.6-10.1,0.5-12.9c0.1-0.3,0.3-0.7,0.5-1.1
		c0.2-0.4,0.4-0.7,0.7-1.1c0.2-0.2,0.3-0.4,0.5-0.5c0.2-0.2,0.4-0.3,0.6-0.5c0.2-0.1,0.4-0.3,0.7-0.4c0.2-0.1,0.5-0.2,0.7-0.3
		c0.3-0.1,0.5-0.2,0.8-0.2l0.8-0.1l0,0l0.1,0l0,0l0.1,0l0.2,0l0.4,0c0.2,0,0.5,0,0.8,0c0.5,0,1,0.1,1.5,0.3c1,0.3,1.8,0.7,2.4,1.2
		c0.3,0.2,0.6,0.5,0.8,0.7c0.2,0.2,0.4,0.4,0.6,0.6c0.1,0.2,0.3,0.3,0.3,0.4c0,0.1,0.1,0.1,0.1,0.1c0,0,0,0.1,0,0.1
		c0.2,0.3,0.1,0.7-0.2,0.9c-0.3,0.2-0.7,0.1-0.8-0.2l0,0c0,0,0,0-0.1-0.1c-0.1-0.1-0.2-0.2-0.3-0.3c-0.1-0.1-0.3-0.3-0.5-0.5
		c-0.2-0.2-0.4-0.4-0.7-0.6c-0.5-0.4-1.2-0.7-2-1c-0.4-0.1-0.8-0.2-1.3-0.2c-0.2,0-0.4,0-0.6,0l-0.7,0l-0.6,0.1
		c-0.2,0-0.4,0.1-0.6,0.2c-0.1,0-0.2,0.1-0.3,0.1c7.1,0.1,6.7,7.1,5.4,18.7c-1.6,13.5-1,24.8,8.8,25.1c0.6,0,1.2,0,1.8-0.1
		c0.1-0.1,0.2-0.1,0.3-0.1c0,0,4.5-0.9,6.2-4.7c0.1-0.3,0.5-0.5,0.9-0.3c0.3,0.1,0.5,0.5,0.3,0.9c-0.6,1.4-1.5,2.5-2.5,3.3
		c0.8,1.4,1.7,2.8,3,4.1c1.3,1.3,2.9,2.3,4.6,3c1.7,0.7,3.4,0.9,5,0.9c0.2,0,0.4,0,0.6,0l0.1,0l0,0c0,0,0.4,0,0.3,0l0.1,0l0.2,0
		c0,0,0.3,0,0.5-0.1c0.2,0,0.4-0.1,0.6-0.1c0.3-0.1,0.6-0.2,0.9-0.3c1.2-0.4,2.2-1.1,2.9-1.7c0.4-0.3,0.7-0.7,1-1
		c0.8-1.1,3-4.2,3.2-6.9c0-0.4,0.3-0.6,0.7-0.6c0.4,0,0.6,0.3,0.6,0.7c-0.1,1.3-0.6,2.8-1.2,4c5.9,8.3,15.2,10.6,19.7,10.6
		c11.9,0,18.2-9.2,18.2-12.6C201,111.3,199.2,109.5,197,109.5z M64.8,98.9c-3,5.7-10.5,10.7-14.4,8.6c-3.9-2.1-3.4-10.7-0.4-16.4
		c3-5.7,10.4-9.6,14.3-7.6C68.3,85.6,67.8,93.2,64.8,98.9z"/>
</g>
</svg>
