<?xml version="1.0" encoding="utf-8"?>
<!-- Generator: Adobe Illustrator 18.1.0, SVG Export Plug-In . SVG Version: 6.00 Build 0)  -->
<!DOCTYPE svg PUBLIC "-//W3C//DTD SVG 1.1//EN" "http://www.w3.org/Graphics/SVG/1.1/DTD/svg11.dtd">
<svg version="1.1" id="Layer_1" xmlns="http://www.w3.org/2000/svg" xmlns:xlink="http://www.w3.org/1999/xlink" x="0px" y="0px"
	 width="242px" height="162px" viewBox="0 0 242 162" enable-background="new 0 0 242 162" xml:space="preserve">
<g>
	<g>
		<g>
			<path fill-rule="evenodd" clip-rule="evenodd" fill="#16FFBD" d="M30.9,20.1l0-3.9c-1.4,0-1-0.1-2.4-0.1c-1.4,0-2.2,0.2-3.2,0.7
				c-0.9,0.5-1.3,1-1.7,1.7c-0.3,0.7-0.5,1.6-0.5,3v0.5h-2L21,25.9h2v9.9H27v-9.9h3.6l0.5-3.9h-4c0,0-0.3-1.2,0.3-1.8
				C27.7,20,30.9,20.1,30.9,20.1z"/>
		</g>
	</g>
	<g>
		<path fill="#16FFBD" d="M26,51.3C12,51.3,0.7,39.9,0.7,26S12,0.7,26,0.7c13.9,0,25.3,11.3,25.3,25.3S39.9,51.3,26,51.3z M26,3.9
			C13.8,3.9,3.9,13.8,3.9,26c0,12.2,9.9,22.1,22.1,22.1c12.2,0,22.1-9.9,22.1-22.1C48.1,13.8,38.2,3.9,26,3.9z"/>
	</g>
</g>
<g>
	<g>
		<path fill="#16FFBD" d="M68.4,24.3c0,2.4,2.1,3.7,4.4,4.1c-0.4,0.1-0.6,0.5-2.2,0.4c0.6,2,2.4,2.7,4.6,2.7
			c-1.7,1.3-3.9,1.8-6.3,1.8c-0.4,0-0.8,0-1.2-0.1c2.2,1.4,4.8,2.8,7.7,2.8c9.2,0,13.7-6.8,13.7-13.5c0-0.2,0-0.4,0-0.6
			c1-0.7,2.5-1.7,3.1-2.7c-0.9,0.4-1.9,0-3,0.1c1-0.6,2.3-1.4,2.4-3.2c-1,0.6-2.3,1.3-3.4,1.6c-0.9-1-2.2-1.8-3.7-1.8
			c-2.8,0-4.6,2.6-4.6,5.3c0,0.4,0,0.6,0.1,1c-4.2-0.2-8.6-1.6-11.1-4.6c-0.4,0.7-0.7,1.6-0.7,2.5c0,1.7,1.3,3.3,2.7,4.2
			C70.3,24.3,70.4,24.9,68.4,24.3z"/>
	</g>
	<g>
		<path fill="#16FFBD" d="M80,51.3c-13.9,0-25.3-11.3-25.3-25.3S66.1,0.7,80,0.7c13.9,0,25.3,11.3,25.3,25.3S93.9,51.3,80,51.3z
			 M80,3.9c-12.2,0-22.1,9.9-22.1,22.1c0,12.2,9.9,22.1,22.1,22.1c12.2,0,22.1-9.9,22.1-22.1C102.1,13.8,92.2,3.9,80,3.9z"/>
	</g>
</g>
<g>
	<g>
		<path fill-rule="evenodd" clip-rule="evenodd" fill="#16FFBD" d="M127.5,16.6c0,0,2.4-1.4,3.2,0.1c0.7,0.4,2.3,9.7,2.7,11.5
			c0.3,1.8,1.2,2.5,1.7,1.7c0.5-0.8,2.3-2.8,3.5-5.6c1.2-2.8-0.4-3.2-0.9-3c-0.5,0.2-3,0.2-2.1-0.9c0.9-1.1,3.2-3,3.8-3.3
			c1.1-0.8,2.6-1.8,4-0.1c0.9,0.7,2.9,3,0.9,6.6c-2,3.5-9.4,11.7-9.4,11.7s-2.8,1.9-3.9,0c-1.1-1.9-4.8-10.7-5-11.9
			c-0.1-1.2-0.4-1.5-1-1.2c-0.6,0.3-1.8,2.1-1.9,1.6c-0.1-0.5-1.2-1.2-0.5-2.3C123.3,20.4,127,16.9,127.5,16.6z"/>
	</g>
	<g>
		<path fill="#16FFBD" d="M134,51.3c-13.9,0-25.3-11.3-25.3-25.3S120.1,0.7,134,0.7c13.9,0,25.3,11.3,25.3,25.3S147.9,51.3,134,51.3
			z M134,3.9c-12.2,0-22.1,9.9-22.1,22.1c0,12.2,9.9,22.1,22.1,22.1c12.2,0,22.1-9.9,22.1-22.1C156.1,13.8,146.2,3.9,134,3.9z"/>
	</g>
</g>
<g>
	<g>
		<g>
			<path fill-rule="evenodd" clip-rule="evenodd" fill="#080D14" d="M30.9,74.1l0-3.9c-1.4,0-1-0.1-2.4-0.1c-1.4,0-2.2,0.2-3.2,0.7
				c-0.9,0.5-1.3,1-1.7,1.7c-0.3,0.7-0.5,1.6-0.5,3v0.5h-2L21,79.9h2v9.9H27v-9.9h3.6l0.5-3.9h-4c0,0-0.3-1.2,0.3-1.8
				C27.7,74,30.9,74.1,30.9,74.1z"/>
		</g>
	</g>
	<g>
		<path fill="#080D14" d="M26,105.3C12,105.3,0.7,93.9,0.7,80S12,54.7,26,54.7c13.9,0,25.3,11.3,25.3,25.3S39.9,105.3,26,105.3z
			 M26,57.9C13.8,57.9,3.9,67.8,3.9,80c0,12.2,9.9,22.1,22.1,22.1c12.2,0,22.1-9.9,22.1-22.1C48.1,67.8,38.2,57.9,26,57.9z"/>
	</g>
</g>
<g>
	<g>
		<path fill="#080D14" d="M68.4,78.3c0,2.4,2.1,3.7,4.4,4.1c-0.4,0.1-0.6,0.5-2.2,0.4c0.6,2,2.4,2.7,4.6,2.7
			c-1.7,1.3-3.9,1.8-6.3,1.8c-0.4,0-0.8,0-1.2-0.1c2.2,1.4,4.8,2.8,7.7,2.8c9.2,0,13.7-6.8,13.7-13.5c0-0.2,0-0.4,0-0.6
			c1-0.7,2.5-1.7,3.1-2.7c-0.9,0.4-1.9,0-3,0.1c1-0.6,2.3-1.4,2.4-3.2c-1,0.6-2.3,1.3-3.4,1.6c-0.9-1-2.2-1.8-3.7-1.8
			c-2.8,0-4.6,2.6-4.6,5.3c0,0.4,0,0.6,0.1,1c-4.2-0.2-8.6-1.6-11.1-4.6c-0.4,0.7-0.7,1.6-0.7,2.5c0,1.7,1.3,3.3,2.7,4.2
			C70.3,78.3,70.4,78.9,68.4,78.3z"/>
	</g>
	<g>
		<path fill="#080D14" d="M80,105.3c-13.9,0-25.3-11.3-25.3-25.3S66.1,54.7,80,54.7c13.9,0,25.3,11.3,25.3,25.3S93.9,105.3,80,105.3
			z M80,57.9c-12.2,0-22.1,9.9-22.1,22.1c0,12.2,9.9,22.1,22.1,22.1c12.2,0,22.1-9.9,22.1-22.1C102.1,67.8,92.2,57.9,80,57.9z"/>
	</g>
</g>
<g>
	<g>
		<path fill-rule="evenodd" clip-rule="evenodd" fill="#080D14" d="M127.5,70.6c0,0,2.4-1.4,3.2,0.1c0.7,0.4,2.3,9.7,2.7,11.5
			c0.3,1.8,1.2,2.5,1.7,1.7c0.5-0.8,2.3-2.8,3.5-5.6c1.2-2.8-0.4-3.2-0.9-3c-0.5,0.2-3,0.2-2.1-0.9c0.9-1.1,3.2-3,3.8-3.3
			c1.1-0.8,2.6-1.8,4-0.1c0.9,0.7,2.9,3,0.9,6.6c-2,3.5-9.4,11.7-9.4,11.7s-2.8,1.9-3.9,0c-1.1-1.9-4.8-10.7-5-11.9
			c-0.1-1.2-0.4-1.5-1-1.2c-0.6,0.3-1.8,2.1-1.9,1.6c-0.1-0.5-1.2-1.2-0.5-2.3C123.3,74.4,127,70.9,127.5,70.6z"/>
	</g>
	<g>
		<path fill="#080D14" d="M134,105.3c-13.9,0-25.3-11.3-25.3-25.3s11.3-25.3,25.3-25.3c13.9,0,25.3,11.3,25.3,25.3
			S147.9,105.3,134,105.3z M134,57.9c-12.2,0-22.1,9.9-22.1,22.1c0,12.2,9.9,22.1,22.1,22.1c12.2,0,22.1-9.9,22.1-22.1
			C156.1,67.8,146.2,57.9,134,57.9z"/>
	</g>
</g>
<g>
	<g>
		<g>
			<path fill-rule="evenodd" clip-rule="evenodd" fill="#FF8DAC" d="M30.9,128.1l0-3.9c-1.4,0-1-0.1-2.4-0.1c-1.4,0-2.2,0.2-3.2,0.7
				c-0.9,0.5-1.3,1-1.7,1.7c-0.3,0.7-0.5,1.6-0.5,3v0.5h-2l-0.1,3.9h2v9.9H27v-9.9h3.6l0.5-3.9h-4c0,0-0.3-1.2,0.3-1.8
				C27.7,128,30.9,128.1,30.9,128.1z"/>
		</g>
	</g>
	<g>
		<path fill="#FF8DAC" d="M26,159.3C12,159.3,0.7,147.9,0.7,134c0-13.9,11.3-25.3,25.3-25.3c13.9,0,25.3,11.3,25.3,25.3
			C51.3,147.9,39.9,159.3,26,159.3z M26,111.9c-12.2,0-22.1,9.9-22.1,22.1c0,12.2,9.9,22.1,22.1,22.1c12.2,0,22.1-9.9,22.1-22.1
			C48.1,121.8,38.2,111.9,26,111.9z"/>
	</g>
</g>
<g>
	<g>
		<path fill="#FF8DAC" d="M68.4,132.3c0,2.4,2.1,3.7,4.4,4.1c-0.4,0.1-0.6,0.5-2.2,0.4c0.6,2,2.4,2.7,4.6,2.7
			c-1.7,1.3-3.9,1.8-6.3,1.8c-0.4,0-0.8,0-1.2-0.1c2.2,1.4,4.8,2.8,7.7,2.8c9.2,0,13.7-6.8,13.7-13.5c0-0.2,0-0.4,0-0.6
			c1-0.7,2.5-1.7,3.1-2.7c-0.9,0.4-1.9,0-3,0.1c1-0.6,2.3-1.4,2.4-3.2c-1,0.6-2.3,1.3-3.4,1.6c-0.9-1-2.2-1.8-3.7-1.8
			c-2.8,0-4.6,2.6-4.6,5.3c0,0.4,0,0.6,0.1,1c-4.2-0.2-8.6-1.6-11.1-4.6c-0.4,0.7-0.7,1.6-0.7,2.5c0,1.7,1.3,3.3,2.7,4.2
			C70.3,132.3,70.4,132.9,68.4,132.3z"/>
	</g>
	<g>
		<path fill="#FF8DAC" d="M80,159.3c-13.9,0-25.3-11.3-25.3-25.3c0-13.9,11.3-25.3,25.3-25.3c13.9,0,25.3,11.3,25.3,25.3
			C105.3,147.9,93.9,159.3,80,159.3z M80,111.9c-12.2,0-22.1,9.9-22.1,22.1c0,12.2,9.9,22.1,22.1,22.1c12.2,0,22.1-9.9,22.1-22.1
			C102.1,121.8,92.2,111.9,80,111.9z"/>
	</g>
</g>
<g>
	<g>
		<path fill-rule="evenodd" clip-rule="evenodd" fill="#FF8DAC" d="M127.5,124.6c0,0,2.4-1.4,3.2,0.1c0.7,0.4,2.3,9.7,2.7,11.5
			c0.3,1.8,1.2,2.5,1.7,1.7c0.5-0.8,2.3-2.8,3.5-5.6c1.2-2.8-0.4-3.2-0.9-3c-0.5,0.2-3,0.2-2.1-0.9c0.9-1.1,3.2-3,3.8-3.3
			c1.1-0.8,2.6-1.8,4-0.1c0.9,0.7,2.9,3,0.9,6.6c-2,3.5-9.4,11.7-9.4,11.7s-2.8,1.9-3.9,0c-1.1-1.9-4.8-10.7-5-11.9
			c-0.1-1.2-0.4-1.5-1-1.2c-0.6,0.3-1.8,2.1-1.9,1.6c-0.1-0.5-1.2-1.2-0.5-2.3C123.3,128.4,127,124.9,127.5,124.6z"/>
	</g>
	<g>
		<path fill="#FF8DAC" d="M134,159.3c-13.9,0-25.3-11.3-25.3-25.3c0-13.9,11.3-25.3,25.3-25.3c13.9,0,25.3,11.3,25.3,25.3
			C159.3,147.9,147.9,159.3,134,159.3z M134,111.9c-12.2,0-22.1,9.9-22.1,22.1c0,12.2,9.9,22.1,22.1,22.1c12.2,0,22.1-9.9,22.1-22.1
			C156.1,121.8,146.2,111.9,134,111.9z"/>
	</g>
</g>
<path fill="#16FFBD" d="M192.4,95l2.8-2.8c0.4-0.4,0.4-1,0-1.4s-1-0.4-1.4,0l-2.8,2.8l-2.8-2.8c-0.4-0.4-1-0.4-1.4,0s-0.4,1,0,1.4
	l2.8,2.8l-2.8,2.8c-0.4,0.4-0.4,1,0,1.4c0.2,0.2,0.5,0.3,0.7,0.3s0.5-0.1,0.7-0.3l2.8-2.8l2.8,2.8c0.2,0.2,0.5,0.3,0.7,0.3
	s0.5-0.1,0.7-0.3c0.4-0.4,0.4-1,0-1.4L192.4,95z"/>
<path fill="#FF8DAC" d="M192.4,107l2.8-2.8c0.4-0.4,0.4-1,0-1.4s-1-0.4-1.4,0l-2.8,2.8l-2.8-2.8c-0.4-0.4-1-0.4-1.4,0s-0.4,1,0,1.4
	l2.8,2.8l-2.8,2.8c-0.4,0.4-0.4,1,0,1.4c0.2,0.2,0.5,0.3,0.7,0.3s0.5-0.1,0.7-0.3l2.8-2.8l2.8,2.8c0.2,0.2,0.5,0.3,0.7,0.3
	s0.5-0.1,0.7-0.3c0.4-0.4,0.4-1,0-1.4L192.4,107z"/>
<path fill="#16FFBD" d="M204.1,95l2.2-2.2c0.3-0.3,0.3-0.8,0-1.1c-0.3-0.3-0.8-0.3-1.1,0l-2.2,2.2l-2.2-2.2c-0.3-0.3-0.8-0.3-1.1,0
	c-0.3,0.3-0.3,0.8,0,1.1l2.2,2.2l-2.2,2.2c-0.3,0.3-0.3,0.8,0,1.1c0.2,0.2,0.4,0.2,0.5,0.2s0.4-0.1,0.5-0.2l2.2-2.2l2.2,2.2
	c0.2,0.2,0.4,0.2,0.5,0.2s0.4-0.1,0.5-0.2c0.3-0.3,0.3-0.8,0-1.1L204.1,95z"/>
<path fill="#FF8DAC" d="M204.1,107l2.2-2.2c0.3-0.3,0.3-0.8,0-1.1c-0.3-0.3-0.8-0.3-1.1,0l-2.2,2.2l-2.2-2.2c-0.3-0.3-0.8-0.3-1.1,0
	c-0.3,0.3-0.3,0.8,0,1.1l2.2,2.2l-2.2,2.2c-0.3,0.3-0.3,0.8,0,1.1c0.2,0.2,0.4,0.2,0.5,0.2s0.4-0.1,0.5-0.2l2.2-2.2l2.2,2.2
	c0.2,0.2,0.4,0.2,0.5,0.2s0.4-0.1,0.5-0.2c0.3-0.3,0.3-0.8,0-1.1L204.1,107z"/>
<path fill="#080D14" d="M192.4,119l2.8-2.8c0.4-0.4,0.4-1,0-1.4s-1-0.4-1.4,0l-2.8,2.8l-2.8-2.8c-0.4-0.4-1-0.4-1.4,0s-0.4,1,0,1.4
	l2.8,2.8l-2.8,2.8c-0.4,0.4-0.4,1,0,1.4c0.2,0.2,0.5,0.3,0.7,0.3s0.5-0.1,0.7-0.3l2.8-2.8l2.8,2.8c0.2,0.2,0.5,0.3,0.7,0.3
	s0.5-0.1,0.7-0.3c0.4-0.4,0.4-1,0-1.4L192.4,119z"/>
<path fill="#080D14" d="M204.1,119l2.2-2.2c0.3-0.3,0.3-0.8,0-1.1c-0.3-0.3-0.8-0.3-1.1,0l-2.2,2.2l-2.2-2.2c-0.3-0.3-0.8-0.3-1.1,0
	c-0.3,0.3-0.3,0.8,0,1.1l2.2,2.2l-2.2,2.2c-0.3,0.3-0.3,0.8,0,1.1c0.2,0.2,0.4,0.2,0.5,0.2s0.4-0.1,0.5-0.2l2.2-2.2l2.2,2.2
	c0.2,0.2,0.4,0.2,0.5,0.2s0.4-0.1,0.5-0.2c0.3-0.3,0.3-0.8,0-1.1L204.1,119z"/>
<g>
	<path fill="#080D14" d="M227.4,87.1c-2.8,0-5.1-2.3-5.1-5.1c0-2-1.6-3.6-3.6-3.6s-3.6,1.6-3.6,3.6c0,2.8-2.3,5.1-5.1,5.1
		c-2.8,0-5.1-2.3-5.1-5.1c0-2-1.6-3.6-3.6-3.6s-3.6,1.6-3.6,3.6c0,2.8-2.3,5.1-5.1,5.1c-2.8,0-5.1-2.3-5.1-5.1
		c0-0.4,0.3-0.7,0.7-0.7s0.7,0.3,0.7,0.7c0,2,1.6,3.6,3.6,3.6c2,0,3.6-1.6,3.6-3.6c0-2.8,2.3-5.1,5.1-5.1c2.8,0,5.1,2.3,5.1,5.1
		c0,2,1.6,3.6,3.6,3.6c2,0,3.6-1.6,3.6-3.6c0-2.8,2.3-5.1,5.1-5.1s5.1,2.3,5.1,5.1c0,2,1.6,3.6,3.6,3.6c2,0,3.6-1.6,3.6-3.6
		c0-0.4,0.3-0.7,0.7-0.7s0.7,0.3,0.7,0.7C232.5,84.8,230.2,87.1,227.4,87.1z"/>
</g>
<g>
	<path fill="#FF8DAC" d="M227.4,73.1c-2.8,0-5.1-2.3-5.1-5.1c0-2-1.6-3.6-3.6-3.6s-3.6,1.6-3.6,3.6c0,2.8-2.3,5.1-5.1,5.1
		c-2.8,0-5.1-2.3-5.1-5.1c0-2-1.6-3.6-3.6-3.6s-3.6,1.6-3.6,3.6c0,2.8-2.3,5.1-5.1,5.1c-2.8,0-5.1-2.3-5.1-5.1
		c0-0.4,0.3-0.7,0.7-0.7s0.7,0.3,0.7,0.7c0,2,1.6,3.6,3.6,3.6c2,0,3.6-1.6,3.6-3.6c0-2.8,2.3-5.1,5.1-5.1c2.8,0,5.1,2.3,5.1,5.1
		c0,2,1.6,3.6,3.6,3.6c2,0,3.6-1.6,3.6-3.6c0-2.8,2.3-5.1,5.1-5.1s5.1,2.3,5.1,5.1c0,2,1.6,3.6,3.6,3.6c2,0,3.6-1.6,3.6-3.6
		c0-0.4,0.3-0.7,0.7-0.7s0.7,0.3,0.7,0.7C232.5,70.8,230.2,73.1,227.4,73.1z"/>
</g>
<g>
	<path fill="#16FFBD" d="M227.4,59.1c-2.8,0-5.1-2.3-5.1-5.1c0-2-1.6-3.6-3.6-3.6s-3.6,1.6-3.6,3.6c0,2.8-2.3,5.1-5.1,5.1
		c-2.8,0-5.1-2.3-5.1-5.1c0-2-1.6-3.6-3.6-3.6s-3.6,1.6-3.6,3.6c0,2.8-2.3,5.1-5.1,5.1c-2.8,0-5.1-2.3-5.1-5.1
		c0-0.4,0.3-0.7,0.7-0.7s0.7,0.3,0.7,0.7c0,2,1.6,3.6,3.6,3.6c2,0,3.6-1.6,3.6-3.6c0-2.8,2.3-5.1,5.1-5.1c2.8,0,5.1,2.3,5.1,5.1
		c0,2,1.6,3.6,3.6,3.6c2,0,3.6-1.6,3.6-3.6c0-2.8,2.3-5.1,5.1-5.1s5.1,2.3,5.1,5.1c0,2,1.6,3.6,3.6,3.6c2,0,3.6-1.6,3.6-3.6
		c0-0.4,0.3-0.7,0.7-0.7s0.7,0.3,0.7,0.7C232.5,56.8,230.2,59.1,227.4,59.1z"/>
</g>
<polygon fill="#080D14" points="207.8,3 205,0.2 197,8.2 189,0.2 186.2,3 194.2,11 186.2,19 189,21.8 197,13.8 205,21.8 207.8,19 
	199.8,11 "/>
<g>
	<g>
		<path fill-rule="evenodd" clip-rule="evenodd" fill="#080D14" d="M163,1v4h20V1H163z M163,13h20V9h-20V13z M163,21h20v-4h-20V21z"
			/>
	</g>
</g>
<polygon fill="#FF8DAC" points="207.8,27 205,24.2 197,32.2 189,24.2 186.2,27 194.2,35 186.2,43 189,45.8 197,37.8 205,45.8 
	207.8,43 199.8,35 "/>
<g>
	<g>
		<path fill-rule="evenodd" clip-rule="evenodd" fill="#FF8DAC" d="M163,25v4h20v-4H163z M163,37h20v-4h-20V37z M163,45h20v-4h-20
			V45z"/>
	</g>
</g>
<g>
	<polygon fill="#080D14" points="220.6,21 211,11 220.6,1 223,3.2 215.5,11 223,18.8 	"/>
</g>
<g>
	<polygon fill="#080D14" points="229.4,1 239,11 229.4,21 227,18.8 234.5,11 227,3.2 	"/>
</g>
<g>
	<polygon fill="#FF8DAC" points="220.6,45 211,35 220.6,25 223,27.2 215.5,35 223,42.8 	"/>
</g>
<g>
	<polygon fill="#FF8DAC" points="229.4,25 239,35 229.4,45 227,42.8 234.5,35 227,27.2 	"/>
</g>
<g>
	<g>
		<circle fill="#16FFBD" cx="217" cy="96.1" r="1.7"/>
	</g>
	<g>
		<path fill="#16FFBD" d="M217,105.5c-0.3,0-0.7,0-2.8-2.7c-0.9-1.2-2.1-2.8-2.5-3.8c-0.4-0.8-0.6-1.7-0.6-2.6
			c0-3.3,2.6-5.9,5.9-5.9c3.3,0,5.9,2.6,5.9,5.9c0,0.9-0.2,1.8-0.6,2.6c-0.5,1-1.6,2.6-2.5,3.8C217.7,105.5,217.4,105.5,217,105.5z
			 M217,92c-2.4,0-4.4,2-4.4,4.4c0,0.7,0.1,1.3,0.4,1.9c0.7,1.4,3,4.4,3.9,5.4c1-1,3.3-4.1,3.9-5.4c0.3-0.6,0.4-1.2,0.4-1.9
			C221.4,94,219.4,92,217,92z"/>
	</g>
</g>
<g>
	<polygon fill="#080D14" points="183,51.4 173,61 163,51.4 165.2,49 173,56.5 180.8,49 	"/>
</g>
<g>
	<polygon fill="#FF8DAC" points="183,67.4 173,77 163,67.4 165.2,65 173,72.5 180.8,65 	"/>
</g>
<g>
	<g>
		<circle fill="#FF8DAC" cx="217" cy="114.1" r="1.7"/>
	</g>
	<g>
		<path fill="#FF8DAC" d="M217,123.5c-0.3,0-0.7,0-2.8-2.7c-0.9-1.2-2.1-2.8-2.5-3.8c-0.4-0.8-0.6-1.7-0.6-2.6
			c0-3.3,2.6-5.9,5.9-5.9c3.3,0,5.9,2.6,5.9,5.9c0,0.9-0.2,1.8-0.6,2.6c-0.5,1-1.6,2.6-2.5,3.8C217.7,123.5,217.4,123.5,217,123.5z
			 M217,110c-2.4,0-4.4,2-4.4,4.4c0,0.7,0.1,1.3,0.4,1.9c0.7,1.4,3,4.4,3.9,5.4c1-1,3.3-4.1,3.9-5.4c0.3-0.6,0.4-1.2,0.4-1.9
			C221.4,112,219.4,110,217,110z"/>
	</g>
</g>
<g>
	<polygon fill="#080D14" points="177,82.5 170,89.2 163,82.5 164.5,80.8 170,86 175.5,80.8 	"/>
</g>
<g>
	<polygon fill="#FF8DAC" points="177,94.5 170,101.2 163,94.5 164.5,92.8 170,98 175.5,92.8 	"/>
</g>
</svg>
