<?xml version="1.0" encoding="utf-8"?>
<!-- Generator: Adobe Illustrator 16.0.0, SVG Export Plug-In . SVG Version: 6.00 Build 0)  -->
<!DOCTYPE svg PUBLIC "-//W3C//DTD SVG 1.1//EN" "http://www.w3.org/Graphics/SVG/1.1/DTD/svg11.dtd">
<svg version="1.1" id="Calque_1" xmlns="http://www.w3.org/2000/svg" xmlns:xlink="http://www.w3.org/1999/xlink" x="0px" y="0px"
	 width="1725.07px" height="138.963px" viewBox="0 0 1725.07 138.963" enable-background="new 0 0 1725.07 138.963"
	 xml:space="preserve">
<g>
	<defs>
		<rect id="SVGID_1_" y="-103.833" width="1725.073" height="242.796"/>
	</defs>
	<clipPath id="SVGID_2_">
		<use xlink:href="#SVGID_1_"  overflow="visible"/>
	</clipPath>
	<path clip-path="url(#SVGID_2_)" fill="#EDEDED" d="M997.596,42.701c0-29.686,24.064-53.75,53.75-53.75
		c29.685,0,53.75,24.065,53.75,53.75c0,29.685-24.065,53.75-53.75,53.75C1021.66,96.451,997.596,72.385,997.596,42.701"/>
	<path clip-path="url(#SVGID_2_)" fill="#EDEDED" d="M938.367,34.029c0-29.685,24.064-53.75,53.75-53.75
		c29.685,0,53.75,24.065,53.75,53.75c0,29.685-24.065,53.75-53.75,53.75C962.432,87.779,938.367,63.713,938.367,34.029"/>
	<path clip-path="url(#SVGID_2_)" fill="#EDEDED" d="M519.612,45.034c0-29.686,24.065-53.75,53.75-53.75s53.75,24.065,53.75,53.75
		c0,29.685-24.065,53.75-53.75,53.75S519.612,74.718,519.612,45.034"/>
	<path clip-path="url(#SVGID_2_)" fill="#EDEDED" d="M1068.964,43.085c0-29.685,24.065-53.75,53.75-53.75
		c29.686,0,53.75,24.065,53.75,53.75c0,29.686-24.064,53.75-53.75,53.75C1093.029,96.835,1068.964,72.771,1068.964,43.085"/>
	<path clip-path="url(#SVGID_2_)" fill="#EDEDED" d="M814.088,53.75c0-29.685,24.065-53.75,53.75-53.75
		c29.686,0,53.75,24.065,53.75,53.75c0,29.686-24.064,53.75-53.75,53.75C838.153,107.5,814.088,83.435,814.088,53.75"/>
	<path clip-path="url(#SVGID_2_)" fill="#EDEDED" d="M657.528,44.779c0-29.685,24.065-53.75,53.75-53.75s53.75,24.065,53.75,53.75
		c0,29.685-24.065,53.75-53.75,53.75S657.528,74.463,657.528,44.779"/>
	<path clip-path="url(#SVGID_2_)" fill="#EDEDED" d="M460.464,36.307c0-29.685,24.065-53.75,53.75-53.75s53.75,24.065,53.75,53.75
		c0,29.686-24.065,53.75-53.75,53.75S460.464,65.993,460.464,36.307"/>
	<path clip-path="url(#SVGID_2_)" fill="#EDEDED" d="M1135.906,37.221c0-41.478,33.625-75.103,75.104-75.103
		c41.478,0,75.102,33.625,75.102,75.103c0,41.479-33.624,75.104-75.102,75.104C1169.531,112.325,1135.906,78.7,1135.906,37.221"/>
	<path clip-path="url(#SVGID_2_)" fill="#EDEDED" d="M913.2,71.984c0-16.8,13.618-30.417,30.417-30.417
		c16.798,0,30.416,13.617,30.416,30.417c0,16.799-13.618,30.417-30.416,30.417C926.818,102.401,913.2,88.783,913.2,71.984"/>
	<path clip-path="url(#SVGID_2_)" fill="#EDEDED" d="M592.695,75.057c0-16.799,13.618-30.417,30.417-30.417
		c16.798,0,30.416,13.618,30.416,30.417s-13.618,30.417-30.416,30.417C606.313,105.474,592.695,91.856,592.695,75.057"/>
	<path clip-path="url(#SVGID_2_)" fill="#EDEDED" d="M432.298,55.245c0-16.799,13.618-30.417,30.417-30.417
		c16.798,0,30.416,13.618,30.416,30.417s-13.618,30.417-30.416,30.417C445.916,85.662,432.298,72.043,432.298,55.245"/>
	<path clip-path="url(#SVGID_2_)" fill="#EDEDED" d="M957.643,85.662c0-16.8,13.618-30.417,30.417-30.417
		c16.798,0,30.416,13.617,30.416,30.417c0,16.799-13.618,30.417-30.416,30.417C971.261,116.079,957.643,102.46,957.643,85.662"/>
	<path clip-path="url(#SVGID_2_)" fill="#EDEDED" d="M319.009,35.371c0-41.478,33.625-75.103,75.103-75.103
		s75.102,33.625,75.102,75.103c0,41.479-33.624,75.104-75.102,75.104S319.009,76.849,319.009,35.371"/>
	<path clip-path="url(#SVGID_2_)" fill="#EDEDED" d="M891.172,39.029c0-16.799,13.617-30.417,30.416-30.417
		s30.416,13.618,30.416,30.417s-13.617,30.417-30.416,30.417S891.172,55.828,891.172,39.029"/>
	<path clip-path="url(#SVGID_2_)" fill="#EDEDED" d="M730.473,85.662c0-12.682,10.28-22.961,22.961-22.961
		c12.681,0,22.961,10.279,22.961,22.961c0,12.681-10.28,22.961-22.961,22.961C740.753,108.623,730.473,98.342,730.473,85.662"/>
	<path clip-path="url(#SVGID_2_)" fill="#EDEDED" d="M1326.65-3.517c0-55.403,44.912-100.316,100.315-100.316
		s100.316,44.913,100.316,100.316s-44.913,100.316-100.316,100.316S1326.65,51.886,1326.65-3.517"/>
	<path clip-path="url(#SVGID_2_)" fill="#EDEDED" d="M167.138,6.705c0-55.403,44.913-100.316,100.316-100.316
		c55.403,0,100.316,44.913,100.316,100.316c0,55.403-44.913,100.316-100.316,100.316C212.051,107.021,167.138,62.108,167.138,6.705"
		/>
	<path clip-path="url(#SVGID_2_)" fill="#EDEDED" d="M1524.441,38.648c0-55.403,44.913-100.316,100.316-100.316
		c55.402,0,100.315,44.913,100.315,100.316c0,55.402-44.913,100.315-100.315,100.315
		C1569.354,138.963,1524.441,94.05,1524.441,38.648"/>
	<path clip-path="url(#SVGID_2_)" fill="#EDEDED" d="M72.353,45.034c0-38.254,31.011-69.267,69.266-69.267
		c38.254,0,69.265,31.012,69.265,69.267c0,38.254-31.011,69.265-69.265,69.265C103.364,114.298,72.353,83.288,72.353,45.034"/>
	<path clip-path="url(#SVGID_2_)" fill="#EDEDED" d="M0,50.791c0-38.254,31.011-69.266,69.266-69.266
		c38.254,0,69.265,31.012,69.265,69.266c0,38.254-31.011,69.265-69.265,69.265C31.011,120.055,0,89.044,0,50.791"/>
	<path clip-path="url(#SVGID_2_)" fill="#EDEDED" d="M741.784,38.648c0-29.686,24.065-53.75,53.75-53.75s53.75,24.065,53.75,53.75
		c0,29.685-24.065,53.75-53.75,53.75S741.784,68.333,741.784,38.648"/>
	<path clip-path="url(#SVGID_2_)" fill="#EDEDED" d="M586.095,39.029c0-29.685,24.065-53.75,53.75-53.75s53.75,24.065,53.75,53.75
		c0,29.685-24.065,53.75-53.75,53.75S586.095,68.713,586.095,39.029"/>
	<path clip-path="url(#SVGID_2_)" fill="#EDEDED" d="M1251.784,38.221c0-29.685,24.065-53.75,53.75-53.75s53.75,24.065,53.75,53.75
		c0,29.686-24.065,53.75-53.75,53.75S1251.784,67.907,1251.784,38.221"/>
	<path clip-path="url(#SVGID_2_)" fill="#EDEDED" d="M1336.323,72.779c0-12.682,10.28-22.961,22.961-22.961
		s22.961,10.279,22.961,22.961c0,12.681-10.28,22.961-22.961,22.961S1336.323,85.459,1336.323,72.779"/>
	<path clip-path="url(#SVGID_2_)" fill="#EDEDED" d="M1461.896,78.221c0-29.685,24.064-53.75,53.75-53.75
		c29.685,0,53.75,24.065,53.75,53.75c0,29.686-24.065,53.75-53.75,53.75C1485.961,131.971,1461.896,107.907,1461.896,78.221"/>
</g>
<rect y="-103.833" fill="#EDEDED" width="1725.073" height="142.48"/>
</svg>
