<?xml version="1.0" encoding="utf-8"?>
<!-- Generator: Adobe Illustrator 16.0.0, SVG Export Plug-In . SVG Version: 6.00 Build 0)  -->
<!DOCTYPE svg PUBLIC "-//W3C//DTD SVG 1.1//EN" "http://www.w3.org/Graphics/SVG/1.1/DTD/svg11.dtd">
<svg version="1.1" id="Calque_1" xmlns="http://www.w3.org/2000/svg" xmlns:xlink="http://www.w3.org/1999/xlink" x="0px" y="0px"
	 width="1685.33px" height="155px" viewBox="0 0 1685.33 155" enable-background="new 0 0 1685.33 155" xml:space="preserve">
<g>
	<defs>
		<rect id="SVGID_1_" y="-18.146" width="1685.326" height="173.245"/>
	</defs>
	<clipPath id="SVGID_2_">
		<use xlink:href="#SVGID_1_"  overflow="visible"/>
	</clipPath>
	<path clip-path="url(#SVGID_2_)" fill="#FCF9F6" d="M118.201,95.845c0,32.64-26.46,59.1-59.1,59.1
		C26.459,154.944,0,128.484,0,95.845c0-32.641,26.46-59.101,59.101-59.101C91.741,36.744,118.201,63.204,118.201,95.845"/>
	<path clip-path="url(#SVGID_2_)" fill="#FCF9F6" d="M618.498,57.866c0,32.64-26.46,59.1-59.1,59.1
		c-32.641,0-59.101-26.46-59.101-59.1c0-32.64,26.46-59.1,59.101-59.1C592.038-1.234,618.498,25.226,618.498,57.866"/>
	<path clip-path="url(#SVGID_2_)" fill="#FCF9F6" d="M1040.279,84.275c0,32.64-26.46,59.1-59.1,59.1
		c-32.642,0-59.102-26.46-59.102-59.1c0-32.64,26.46-59.1,59.102-59.1C1013.819,25.175,1040.279,51.635,1040.279,84.275"/>
	<path clip-path="url(#SVGID_2_)" fill="#FCF9F6" d="M1409.43,79.632c0,32.641-26.46,59.101-59.1,59.101
		c-32.641,0-59.101-26.46-59.101-59.101c0-32.64,26.46-59.1,59.101-59.1C1382.97,20.532,1409.43,46.992,1409.43,79.632"/>
	<path clip-path="url(#SVGID_2_)" fill="#FCF9F6" d="M1685.326,88.846c0,32.64-26.461,59.1-59.101,59.1
		c-32.641,0-59.101-26.46-59.101-59.1c0-32.641,26.46-59.101,59.101-59.101C1658.865,29.745,1685.326,56.205,1685.326,88.846"/>
	<path clip-path="url(#SVGID_2_)" fill="#FCF9F6" d="M745.955,55.838c0,40.86-33.124,73.984-73.984,73.984
		c-40.86,0-73.983-33.124-73.983-73.984s33.123-73.984,73.983-73.984C712.831-18.146,745.955,14.979,745.955,55.838"/>
	<path clip-path="url(#SVGID_2_)" fill="#FCF9F6" d="M252.779,59.632c0,40.86-33.124,73.984-73.984,73.984
		c-40.86,0-73.983-33.124-73.983-73.984c0-40.86,33.123-73.984,73.983-73.984C219.655-14.352,252.779,18.772,252.779,59.632"/>
	<path clip-path="url(#SVGID_2_)" fill="#FCF9F6" d="M1314.053,58.059c0,40.86-33.124,73.984-73.984,73.984
		s-73.983-33.124-73.983-73.984c0-40.86,33.123-73.984,73.983-73.984S1314.053,17.199,1314.053,58.059"/>
	<path clip-path="url(#SVGID_2_)" fill="#FCF9F6" d="M1178.381,58.059c0,40.86-33.124,73.984-73.983,73.984
		c-40.86,0-73.983-33.124-73.983-73.984c0-40.86,33.123-73.984,73.983-73.984C1145.257-15.925,1178.381,17.199,1178.381,58.059"/>
	<path clip-path="url(#SVGID_2_)" fill="#FCF9F6" d="M1591.711,81.116c0,40.859-33.124,73.983-73.984,73.983
		c-40.859,0-73.982-33.124-73.982-73.983c0-40.86,33.123-73.984,73.982-73.984C1558.587,7.132,1591.711,40.256,1591.711,81.116"/>
	<path clip-path="url(#SVGID_2_)" fill="#FCF9F6" d="M161.108,110.854c0,19.711-15.979,35.691-35.691,35.691
		c-19.711,0-35.69-15.98-35.69-35.691s15.979-35.69,35.69-35.69C145.129,75.164,161.108,91.144,161.108,110.854"/>
	<path clip-path="url(#SVGID_2_)" fill="#FCF9F6" d="M1463.108,85.968c0,19.711-15.979,35.691-35.69,35.691
		c-19.711,0-35.69-15.98-35.69-35.691s15.979-35.691,35.69-35.691C1447.13,50.277,1463.108,66.257,1463.108,85.968"/>
	<path clip-path="url(#SVGID_2_)" fill="#FCF9F6" d="M795.491,94.456c0,19.711-15.979,35.691-35.691,35.691
		c-19.711,0-35.69-15.98-35.69-35.691s15.979-35.691,35.69-35.691C779.512,58.765,795.491,74.745,795.491,94.456"/>
	<path clip-path="url(#SVGID_2_)" fill="#FCF9F6" d="M535.988,95.845c0,19.711-15.979,35.69-35.691,35.69
		c-19.711,0-35.69-15.979-35.69-35.69s15.979-35.691,35.69-35.691C520.009,60.153,535.988,76.134,535.988,95.845"/>
	<path clip-path="url(#SVGID_2_)" fill="#FCF9F6" d="M1202.381,107.456c0,19.711-15.979,35.691-35.69,35.691
		c-19.711,0-35.69-15.98-35.69-35.691s15.979-35.69,35.69-35.69C1186.402,71.766,1202.381,87.745,1202.381,107.456"/>
	<path clip-path="url(#SVGID_2_)" fill="#FCF9F6" d="M304.883,97.956c0,19.711-15.979,35.691-35.691,35.691
		c-19.711,0-35.69-15.98-35.69-35.691s15.979-35.691,35.69-35.691C288.904,62.265,304.883,78.245,304.883,97.956"/>
	<path clip-path="url(#SVGID_2_)" fill="#FCF9F6" d="M503.699,78.846c0,19.711-15.979,35.69-35.691,35.69
		c-19.711,0-35.69-15.979-35.69-35.69c0-19.711,15.979-35.691,35.69-35.691C487.72,43.154,503.699,59.134,503.699,78.846"/>
	<path clip-path="url(#SVGID_2_)" fill="#FCF9F6" d="M445.139,86.255c0,29.9-24.239,54.14-54.139,54.14
		c-29.9,0-54.139-24.239-54.139-54.14c0-29.9,24.239-54.139,54.139-54.139C420.9,32.116,445.139,56.355,445.139,86.255"/>
	<path clip-path="url(#SVGID_2_)" fill="#FCF9F6" d="M354.281,84.275c0,19.711-15.979,35.69-35.691,35.69
		c-19.711,0-35.69-15.979-35.69-35.69c0-19.711,15.979-35.691,35.69-35.691C338.302,48.584,354.281,64.564,354.281,84.275"/>
	<path clip-path="url(#SVGID_2_)" fill="#FCF9F6" d="M940.842,94.456c0,19.711-15.979,35.691-35.69,35.691
		s-35.69-15.98-35.69-35.691s15.979-35.691,35.69-35.691S940.842,74.745,940.842,94.456"/>
	<path clip-path="url(#SVGID_2_)" fill="#FCF9F6" d="M882.479,75.164c0,29.524-23.934,53.457-53.457,53.457
		c-29.524,0-53.457-23.933-53.457-53.457c0-29.524,23.933-53.457,53.457-53.457C858.545,21.707,882.479,45.64,882.479,75.164"/>
</g>
<rect y="-155.299" fill="#FCF9F6" width="1685.326" height="244.145"/>
</svg>
