<svg xmlns:x="http://ns.adobe.com/Extensibility/1.0/" xmlns:i="http://ns.adobe.com/AdobeIllustrator/10.0/" xmlns:graph="http://ns.adobe.com/Graphs/1.0/" xmlns="http://www.w3.org/2000/svg" xmlns:xlink="http://www.w3.org/1999/xlink" version="1.1" x="0px" y="0px" viewBox="0 0 100 100" enable-background="new 0 0 100 100" xml:space="preserve"><metadata><sfw xmlns="http://ns.adobe.com/SaveForWeb/1.0/"><slices/><sliceSourceBounds x="0" y="-100" height="100" width="100" bottomLeftOrigin="true"/></sfw></metadata><path fill="#FFF" d="M81.5,48h-20l-2-2V26l2-2h20l2,2v20L81.5,48z M63.5,44h16V28h-16V44z"/><line fill="#FFF" stroke="#FFF" stroke-width="3" stroke-linejoin="bevel" x1="71.5" y1="26" x2="71.5" y2="0"/><line fill="#FFF" stroke="#FFF" stroke-width="3" stroke-linejoin="bevel" x1="71.5" y1="100" x2="71.5" y2="46"/><line fill="#FFF" stroke="#FFF" stroke-width="3" stroke-linejoin="bevel" x1="62" y1="35.5" x2="0" y2="35.5"/><line fill="#FFF" stroke="#FFF" stroke-width="3" stroke-linejoin="bevel" x1="100" y1="35.5" x2="82" y2="35.5"/><line fill="#FFF" stroke="#FFF" stroke-width="2" stroke-linejoin="bevel" x1="20" y1="51" x2="20" y2="81"/><path fill="#FFF" d="M51.5,82h-2c0-1-0.021-1.543-0.063-2.182l1.996-0.006C51.478,80.493,51.5,81,51.5,82z M49.246,77.646  c-0.085-0.642-0.192-1.277-0.318-1.906l1.961-0.395c0.135,0.671,0.249,1.356,0.34,2.037L49.246,77.646z M48.483,73.859  c-0.168-0.618-0.36-1.239-0.57-1.845l1.891-0.654c0.224,0.648,0.429,1.313,0.609,1.974L48.483,73.859z M47.22,70.208  c-0.252-0.596-0.523-1.181-0.813-1.756l1.786-0.9c0.31,0.616,0.603,1.247,0.869,1.877L47.22,70.208z M45.478,66.756  c-0.327-0.552-0.676-1.101-1.04-1.63l1.649-1.131c0.388,0.565,0.762,1.152,1.112,1.743L45.478,66.756z M43.292,63.568  c-0.399-0.508-0.815-1-1.247-1.479l1.486-1.338c0.462,0.513,0.91,1.045,1.332,1.579L43.292,63.568z M40.706,60.697  c-0.463-0.449-0.94-0.883-1.431-1.302l1.297-1.521c0.523,0.445,1.037,0.912,1.527,1.388L40.706,60.697z M37.762,58.194  c-0.516-0.383-1.046-0.749-1.588-1.099l1.083-1.682c0.578,0.372,1.149,0.768,1.698,1.175L37.762,58.194z M34.517,56.106  c-0.563-0.311-1.136-0.603-1.72-0.877l0.849-1.811c0.62,0.29,1.238,0.605,1.838,0.938L34.517,56.106z M31.023,54.468  c-0.599-0.233-1.207-0.446-1.824-0.641l0.602-1.908c0.662,0.209,1.317,0.439,1.948,0.686L31.023,54.468z M27.338,53.311  c-0.619-0.149-1.255-0.281-1.891-0.391l0.338-1.971c0.681,0.117,1.361,0.257,2.024,0.418L27.338,53.311z M23.534,52.657  c-0.637-0.066-1.281-0.112-1.929-0.137l0.076-1.999c0.689,0.026,1.382,0.075,2.059,0.146L23.534,52.657z"/><polygon fill="#FFF" points="15,87 0,87 0,85 13,85 13,82 0,82 0,80 15,80 "/><rect x="16" y="81" stroke="#FFF" stroke-width="2" width="4" height="5" fill="#FFF"/><polygon fill="#FFF" points="100,87 55,87 55,80 100,80 100,82 57,82 57,85 100,85 "/><rect x="50" y="81" stroke="#FFF" stroke-width="2" width="4" height="5" fill="#FFF"/></svg>