<svg xmlns="http://www.w3.org/2000/svg" xmlns:xlink="http://www.w3.org/1999/xlink" version="1.0" x="0px" y="0px" viewBox="0 0 100 100" enable-background="new 0 0 100 100" xml:space="preserve"><path fill="#FFF" d="M66.6,53.971c-1.316,0-2.592,0.244-3.801,0.728l-4.054-3.348l3.751-3.097c1.257,0.528,2.588,0.796,3.966,0.796  c5.662,0,10.269-4.606,10.269-10.268s-4.606-10.268-10.269-10.268c-5.661,0-10.268,4.606-10.268,10.268  c0,0.516,0.04,1.035,0.118,1.552l-5.477,4.522L35.232,31.972c-1.735-1.433-3.93-2.105-6.164-1.891  c-2.24,0.214-4.263,1.287-5.694,3.021c-0.276,0.334-0.405,0.755-0.364,1.187c0.041,0.431,0.247,0.819,0.581,1.095l19.358,15.984  L23.59,67.354c-0.688,0.57-0.785,1.593-0.217,2.281c1.433,1.735,3.455,2.808,5.695,3.022c0.273,0.026,0.545,0.039,0.815,0.039  c1.951,0,3.825-0.671,5.349-1.93l15.625-12.902l5.622,4.642c-0.098,0.575-0.147,1.155-0.147,1.732  c0,5.662,4.606,10.268,10.268,10.268S76.867,69.9,76.867,64.238S72.261,53.971,66.6,53.971z M25.166,34.091  c1.071-1.155,2.511-1.868,4.093-2.019c1.711-0.168,3.377,0.349,4.7,1.441l15.306,12.638l-4.747,3.919L25.166,34.091z M33.959,69.224  c-1.323,1.093-2.986,1.606-4.7,1.442c-1.582-0.151-3.021-0.864-4.093-2.019l32.872-27.145c0.287-0.237,0.419-0.615,0.342-0.979  c-0.123-0.578-0.186-1.164-0.186-1.742c0-4.559,3.709-8.268,8.268-8.268c4.56,0,8.269,3.709,8.269,8.268  c0,4.559-3.709,8.268-8.269,8.268c-1.288,0-2.523-0.29-3.674-0.861c-0.354-0.177-0.777-0.127-1.082,0.125l-4.972,4.105  c-0.137,0.061-0.264,0.144-0.366,0.267c-0.016,0.019-0.019,0.043-0.034,0.063L33.959,69.224z M66.6,72.506  c-4.559,0-8.268-3.709-8.268-8.268c0-0.632,0.074-1.27,0.22-1.894c0.087-0.37-0.044-0.757-0.337-0.999l-5.787-4.778l4.747-3.92  l4.824,3.983c0.3,0.248,0.718,0.299,1.064,0.133c1.111-0.526,2.301-0.793,3.536-0.793c4.559,0,8.268,3.709,8.268,8.268  C74.867,68.797,71.158,72.506,66.6,72.506z M66.103,45.045c3.255,0,5.903-2.648,5.903-5.904s-2.648-5.904-5.903-5.904  c-3.256,0-5.904,2.648-5.904,5.904S62.847,45.045,66.103,45.045z M66.103,35.237c2.152,0,3.903,1.751,3.903,3.904  s-1.751,3.904-3.903,3.904c-2.153,0-3.904-1.751-3.904-3.904S63.949,35.237,66.103,35.237z M66.239,57.975  c-3.255,0-5.903,2.648-5.903,5.904s2.648,5.904,5.903,5.904c3.256,0,5.904-2.648,5.904-5.904S69.495,57.975,66.239,57.975z   M66.239,67.782c-2.152,0-3.903-1.751-3.903-3.904s1.751-3.904,3.903-3.904c2.153,0,3.904,1.751,3.904,3.904  S68.393,67.782,66.239,67.782z M50.897,49.568c-0.968,0-1.755,0.787-1.755,1.754s0.787,1.754,1.755,1.754  c0.967,0,1.754-0.787,1.754-1.754S51.864,49.568,50.897,49.568z M50.651,51.322c0-0.135,0.11-0.246,0.246-0.246  c0.135,0,0.245,0.11,0.245,0.246C51.143,51.594,50.651,51.592,50.651,51.322z"/></svg>