<svg xmlns="http://www.w3.org/2000/svg" xmlns:xlink="http://www.w3.org/1999/xlink" version="1.1" x="0px" y="0px" viewBox="0 0 100 100" enable-background="new 0 0 100 100" xml:space="preserve"><g><path fill="#FFF" d="M32.057,61.543c0.029-2.746,0.222-5.373,0.543-7.856c-0.063-0.208-0.095-0.425-0.095-0.653   c0-0.456,0.136-0.881,0.373-1.238c0.509-3.136,1.231-6.027,2.11-8.649c1.919-5.748,4.591-10.246,7.367-13.158v-0.104   c0.003-1.411,0.016-3.814-0.663-5.934c-0.367-1.14-1.163-2.461-1.987-3.57c-0.388-0.52-0.518-1.151-0.41-1.742l-6.66,2   c-1.166,0.352-2.397-0.32-2.742-1.497c-0.025-0.089-0.043-0.177-0.06-0.26l-1.301-7.571c-0.189-1.114,0.474-2.171,1.51-2.498V8.807   l11.631-3.704c1.096-0.348,2.268,0.212,2.7,1.264l0,0c0.59,1.42,1.462,2.608,2.511,3.437c0.922,0.735,1.986,1.192,3.114,1.269   c1.124-0.077,2.194-0.534,3.117-1.269c1.052-0.829,1.92-2.016,2.507-3.427c0.439-1.078,1.62-1.616,2.7-1.269V5.103l11.632,3.704   c1.1,0.352,1.737,1.494,1.494,2.607l-1.283,7.468c-0.205,1.213-1.345,2.026-2.545,1.818c-0.101-0.014-0.198-0.042-0.294-0.072   l-6.686-2.011l-0.025-0.005c-0.372-0.072,0.3,0.933-0.322,1.768l-0.091,0.108c-0.786,1.078-1.541,2.353-1.896,3.462   c-0.679,2.12-0.669,4.523-0.662,5.934v0.104c2.772,2.912,5.446,7.41,7.367,13.158c1.74,5.207,2.88,11.494,2.928,18.604   c0.003,1.229-0.976,2.227-2.191,2.232h-0.007v0.007H52.205v20.555h6.743c1.743,0,3.332,0.718,4.481,1.881l0.01,0.007   c1.149,1.163,1.866,2.764,1.866,4.526v1.813c0,1.228-0.992,2.229-2.215,2.229c-1.219,0-2.207-1.001-2.207-2.229v-1.813   c0-0.539-0.218-1.033-0.565-1.384c-0.354-0.354-0.837-0.57-1.37-0.57H41.051c-0.534,0-1.023,0.217-1.371,0.57   c-0.35,0.351-0.565,0.845-0.565,1.384v1.813c0,1.228-0.992,2.229-2.21,2.229c-1.219,0-2.211-1.001-2.211-2.229v-1.813   c0-1.763,0.714-3.363,1.863-4.526l0.013-0.007c1.149-1.163,2.735-1.881,4.481-1.881h6.739V63.989H34.259   c-1.223,0-2.211-0.995-2.211-2.228C32.048,61.688,32.051,61.615,32.057,61.543L32.057,61.543z M37.53,50.805h24.939   c-0.436-2.233-0.991-4.321-1.635-6.25c-1.82-5.447-4.331-9.546-6.847-11.961c-0.506-0.444-0.81-1.119-0.759-1.844   c0.016-0.223,0.016-0.504,0.01-0.845c-0.003-1.68-0.016-4.539,0.874-7.313c0.513-1.606,1.523-3.342,2.562-4.753   c0.029-0.051,0.06-0.097,0.099-0.144c0.902-1.213,1.964-2.198,2.946-2.789c0.552-0.56,1.383-0.797,2.183-0.555l4.336,1.3   l0.546-3.177l-8.009-2.555c-0.796,1.333-1.794,2.483-2.934,3.385c-1.648,1.31-3.613,2.114-5.739,2.217   c-0.066,0.005-0.138,0.005-0.205,0c-2.128-0.104-4.092-0.907-5.741-2.217c-1.144-0.907-2.141-2.058-2.937-3.385l-8.009,2.555   l0.549,3.177l4.333-1.3c1.21-0.362,3.364,1.042,5.028,3.213c0.035,0.042,0.073,0.089,0.107,0.136   c1.067,1.43,2.123,3.223,2.66,4.892c0.887,2.773,0.875,5.633,0.868,7.313c0,0.341,0,0.622,0.017,0.845h-0.007   c0.047,0.642-0.183,1.3-0.688,1.777c-2.54,2.41-5.075,6.53-6.914,12.028C38.519,46.483,37.966,48.572,37.53,50.805L37.53,50.805z    M63.152,55.268H36.845c-0.158,1.379-0.272,2.799-0.332,4.266h13.486h13.481C63.42,58.066,63.31,56.646,63.152,55.268   L63.152,55.268z"/></g></svg>