<svg xmlns="http://www.w3.org/2000/svg" xmlns:xlink="http://www.w3.org/1999/xlink" version="1.1" x="0px" y="0px" viewBox="15 15 70 70"><path fill="#FFF" d="M73.722,47.177c-0.476-0.266-1.057-0.251-1.52,0.034l-8.056,4.979v-3.154c0-2.696-1.822-4.97-4.299-5.669  c1.007-1.259,1.613-2.852,1.613-4.585c0-4.059-3.302-7.36-7.36-7.36c-4.058,0-7.358,3.302-7.358,7.36  c0,1.633,0.541,3.138,1.443,4.359h-4.588c1.365-1.551,2.2-3.578,2.2-5.801c0-4.853-3.948-8.801-8.801-8.801  s-8.801,3.948-8.801,8.801c0,2.263,0.866,4.322,2.273,5.882c-2.807,0.451-4.96,2.882-4.96,5.813v16.531  c0,3.249,2.645,5.893,5.896,5.893h26.846c3.251,0,5.896-2.644,5.896-5.893V62.41l8.056,4.981c0.241,0.149,0.515,0.225,0.789,0.225  c0.251,0,0.503-0.063,0.73-0.189c0.475-0.266,0.77-0.767,0.77-1.311V48.487C74.491,47.943,74.196,47.442,73.722,47.177z   M49.742,38.782c0-2.404,1.955-4.36,4.358-4.36c2.404,0,4.36,1.956,4.36,4.36c0,2.404-1.956,4.359-4.36,4.359  C51.697,43.142,49.742,41.186,49.742,38.782z M36.996,31.54c3.199,0,5.801,2.602,5.801,5.801s-2.602,5.801-5.801,5.801  s-5.801-2.602-5.801-5.801S33.797,31.54,36.996,31.54z M31.405,46.142h26.846c1.597,0,2.896,1.298,2.896,2.895v14.136H28.509V49.036  C28.509,47.44,29.808,46.142,31.405,46.142z M58.251,68.46H31.405c-1.389,0-2.551-0.983-2.831-2.288h32.506  C60.802,67.477,59.64,68.46,58.251,68.46z M71.491,63.425l-7.345-4.541v-3.166l7.345-4.54V63.425z"/></svg>