<svg xmlns="http://www.w3.org/2000/svg" xmlns:xlink="http://www.w3.org/1999/xlink" version="1.1" x="0px" y="0px" viewBox="0 0 100 100" enable-background="new 0 0 100 100" xml:space="preserve"><g><rect x="-192" width="185" height="99"/><rect y="-36" width="100" height="30"/><text transform="matrix(1 0 0 1 66 -19.5)" fill="#FFF" font-family="'Helvetica'" font-size="2.4">http://thenounproject.com</text><text transform="matrix(1 0 0 1 7.166 -24.5)" fill="#FFF" font-family="'Helvetica-Bold'" font-size="6.1578">The Noun Project</text><text transform="matrix(1 0 0 1 8.2861 -19.7002)" fill="#FFF" font-family="'Helvetica-Bold'" font-size="4">Icon Template</text><text transform="matrix(1 0 0 1 -178.5 10.5)" fill="#FFF" font-family="'Helvetica-Bold'" font-size="6.1578">Reminders</text><line fill="#FFF" stroke="#FFFFFF" stroke-miterlimit="10" x1="8" y1="-14.5" x2="18" y2="-14.5"/><line fill="#FFF" stroke="#FFFFFF" stroke-miterlimit="10" x1="-179" y1="16.5" x2="-162" y2="16.5"/><g><g><g><rect x="-170.802" y="31.318" fill="#FFF" width="8.721" height="8.642"/><path fill="#FFF" d="M-164.455,42.312h4.747v-4.703h-4.747V42.312z M-159.266,42.749h-5.63V37.17h5.63V42.749      L-159.266,42.749z M-166.221,44.062h8.279v-8.203h-8.279V44.062L-166.221,44.062z M-157.5,44.5h-9.163v-9.079h9.163V44.5      L-157.5,44.5z"/><polygon fill="#FFF" points="-166.149,44.133 -166.292,43.991 -158.013,35.787 -157.871,35.929     "/></g></g></g><rect x="-179" y="58" fill="none" width="35" height="32.5"/><text transform="matrix(1 0 0 1 -179 60.1572)" fill="#FFF" font-family="'Helvetica-Bold'" font-size="3">Strokes</text><text transform="matrix(1 0 0 1 -179 65.1572)" fill="#FFF" font-family="'Helvetica'" font-size="2.4">Try to keep strokes at 4px</text><text transform="matrix(1 0 0 1 -179 70.1572)" fill="#FFF" font-family="'Helvetica'" font-size="2.4">Minimum stroke weight is 2px</text><text transform="matrix(1 0 0 1 -179 74.6572)" fill="#FFF" font-family="'Helvetica'" font-size="2.4">For thicker strokes use even </text><text transform="matrix(1 0 0 1 -179 77.6572)" fill="#FFF" font-family="'Helvetica'" font-size="2.4">numbers: 6px, 8px etc.</text><text transform="matrix(1 0 0 1 -179 82.1572)" fill="#FFF" font-family="'Helvetica-Bold'" font-size="2.4">Remember to expand strokes </text><text transform="matrix(1 0 0 1 -179 85.1572)" fill="#FFF" font-family="'Helvetica-Bold'" font-size="2.4">before saving as an SVG </text><rect x="-136.5" y="58" fill="none" width="35" height="32.5"/><text transform="matrix(1 0 0 1 -136.5 60.1572)" fill="#FFF" font-family="'Helvetica-Bold'" font-size="3">Size</text><text transform="matrix(1 0 0 1 -136.5 65.1572)" fill="#FFF" font-family="'Helvetica'" font-size="2.4">Cannot be wider or taller than </text><text transform="matrix(1 0 0 1 -136.5 68.6572)" fill="#FFF" font-family="'Helvetica'" font-size="2.4">100px (artboard size)</text><text transform="matrix(1 0 0 1 -136.5 73.6572)" fill="#FFF" font-family="'Helvetica'" font-size="2.4">Scale your icon to fill as much of </text><text transform="matrix(1 0 0 1 -136.5 76.6572)" fill="#FFF" font-family="'Helvetica'" font-size="2.4">the artboard as possible</text><rect x="-94" y="58" fill="none" width="35" height="32.5"/><text transform="matrix(1 0 0 1 -94 60.1572)" fill="#FFF" font-family="'Helvetica-Bold'" font-size="3">Ungroup</text><text transform="matrix(1 0 0 1 -94 65.1572)" fill="#FFF" font-family="'Helvetica'" font-size="2.4">If your design has more than one </text><text transform="matrix(1 0 0 1 -94 68.1572)" fill="#FFF" font-family="'Helvetica'" font-size="2.4">shape, make sure to ungroup</text><rect x="-50" y="58" fill="none" width="35" height="32.5"/><text transform="matrix(1 0 0 1 -50 60.1572)" fill="#FFF" font-family="'Helvetica-Bold'" font-size="3">Save as</text><text transform="matrix(1 0 0 1 -50 65.1572)" fill="#FFF" font-family="'Helvetica'" font-size="2.4">Save as .SVG and make sure </text><text transform="matrix(1 0 0 1 -50 68.1572)" fill="#FFF" font-family="'Helvetica'" font-size="2.4">“Use Artboards” is checked</text><text transform="matrix(1.0074 0 0 1 -125.542 30.5938)" fill="#FFF" font-family="'Helvetica'" font-size="2.5731">100px</text><text transform="matrix(1.0074 0 0 1 -41 39)" fill="#FFF" font-family="'Helvetica-Bold'" font-size="5.1462">.SVG</text><rect x="-126.514" y="34.815" fill="#FFF" width="10.261" height="10.185"/><rect x="-126.477" y="31.766" fill="#FFF" width="0.522" height="2.337"/><rect x="-116.812" y="31.766" fill="#FFF" width="0.523" height="2.337"/><rect x="-127" y="32.337" fill="#FFF" width="11.233" height="0.572"/><g><rect x="-83.805" y="33.844" fill="#FFF" width="10.305" height="10.156"/><rect x="-76.809" y="28.707" fill="#FFF" width="3.308" height="3.261"/></g><rect x="-178.5" y="22.5" fill="#FFF" stroke="#FFFFFF" stroke-miterlimit="10" width="30" height="30"/><rect x="-136.5" y="22.5" fill="#FFF" stroke="#FFFFFF" stroke-miterlimit="10" width="30" height="30"/><rect x="-93.5" y="22.5" fill="#FFF" stroke="#FFFFFF" stroke-miterlimit="10" width="30" height="30"/><rect x="-49.5" y="22.5" fill="#FFF" stroke="#FFFFFF" stroke-miterlimit="10" width="30" height="30"/></g><path fill="#FFF" d="M74.018,76.008H60.664c-1.242,0-2.25-1.008-2.25-2.25c0-9.659-6.167-12.779-6.431-12.908  c-0.598-0.293-1.046-0.841-1.207-1.488c-0.158-0.647-0.032-1.339,0.363-1.875c0.103-0.138,10.116-13.837,13.708-25.57  c0.287-0.946,1.16-1.591,2.15-1.591l0,0c0.99,0,1.863,0.647,2.15,1.594c3.463,11.32,13.611,25.441,13.714,25.582  c0.384,0.536,0.519,1.213,0.36,1.854s-0.589,1.181-1.181,1.477c-0.214,0.114-5.774,3.161-5.774,12.926  C76.268,75,75.26,76.008,74.018,76.008z M62.817,71.508h9.038c0.571-7.239,3.841-11.271,6.07-13.213  c-2.373-3.478-7.477-11.326-10.919-19.28c-3.445,8.042-8.476,15.732-10.878,19.213C58.561,60.164,62.188,64.225,62.817,71.508z"/><path fill="#FFF" d="M30.658,68.763c-0.577,0-1.151-0.22-1.591-0.659l-6.674-6.674c-0.879-0.879-0.879-2.303,0-3.182l6.674-6.674  c0.879-0.879,2.303-0.879,3.182,0l6.674,6.674c0.879,0.879,0.879,2.303,0,3.182l-6.674,6.674  C31.81,68.543,31.235,68.763,30.658,68.763z M27.166,59.839l3.492,3.492l3.492-3.492l-3.492-3.492L27.166,59.839z"/><path fill="#FFF" d="M30.652,55.421c-1.189,0-2.183-0.932-2.244-2.136c-0.302-5.9,1.5-14.449,7.462-20.745c1.661-1.755,3.551-3.255,5.663-4.5  H22.959c-1.242,0-2.25-1.008-2.25-2.25s1.008-2.25,2.25-2.25h37.365c1.242,0,2.247,1.005,2.25,2.247  c0.003,1.239-1.002,2.25-2.244,2.253c-9.316,0.029-16.447,2.587-21.193,7.594c-6.434,6.797-6.322,15.706-6.234,17.423  c0.064,1.239-0.891,2.297-2.133,2.361C30.731,55.421,30.693,55.421,30.652,55.421z"/><circle fill="#FFF" cx="20.961" cy="25.79" r="4.248"/><path fill="#FFF" d="M66.998,34.825c-0.604,0-1.181-0.243-1.605-0.671l-6.674-6.785c-0.416-0.428-0.65-1.002-0.645-1.597  c0.006-0.598,0.246-1.169,0.674-1.588l6.674-6.56c0.873-0.861,2.279-0.861,3.152,0l6.674,6.56c0.428,0.419,0.668,0.99,0.674,1.588  c0.006,0.595-0.229,1.169-0.645,1.597l-6.674,6.785C68.179,34.582,67.602,34.825,66.998,34.825z M63.506,25.816l3.492,3.551  l3.492-3.551l-3.492-3.431L63.506,25.816z"/><path fill="#FFF" d="M66.998,55.421c-1.242,0-2.25-1.008-2.25-2.25V32.575c0-1.242,1.008-2.25,2.25-2.25s2.25,1.008,2.25,2.25v20.596  C69.248,54.413,68.24,55.421,66.998,55.421z"/><path fill="#FFF" d="M81.037,83.021H52.953c-1.242,0-2.25-1.008-2.25-2.25s1.008-2.25,2.25-2.25h28.084c1.242,0,2.25,1.008,2.25,2.25  S82.279,83.021,81.037,83.021z"/></svg>
