<svg xmlns="http://www.w3.org/2000/svg" xmlns:xlink="http://www.w3.org/1999/xlink" version="1.1" x="0px" y="0px" viewBox="0 0 512 512" enable-background="new 0 0 512 512" xml:space="preserve"><g><g><path fill="#FFF" d="M471.089,236h-39.671c-4.258-40-21.777-74.627-51.582-104.441C350.709,102.43,317,85.624,276,81.392V41.64    c0-3.233-2.062-6.64-5.296-6.64h-29.271c-3.234,0-5.434,3.406-5.434,6.64v39.762c-41,4.274-74.65,21.257-103.791,50.696    C103.01,161.609,85.906,196,81.733,236H41.049c-3.232,0-6.049,2.791-6.049,6.023v29.271c0,3.233,2.816,5.705,6.049,5.705h40.784    c4.332,40,21.403,73.889,50.376,103.158C161.336,409.598,195,426.74,236,431.014v40.666c0,3.232,2.199,6.32,5.434,6.32h29.271    c3.233,0,5.296-3.088,5.296-6.32v-40.665c41-4.272,74.926-21.407,104.355-50.834C409.631,350.9,426.949,317,431.327,277h39.762    c3.233,0,5.911-2.472,5.911-5.705v-29.271C477,238.791,474.322,236,471.089,236z M394.307,313.514    c-7.037,17.327-17.758,33.264-31.863,47.37c-0.017,0.018-0.036,0.035-0.052,0.052c-14.494,14.842-30.725,26.116-48.237,33.51    c-17.513,7.393-36.867,11.142-57.532,11.142c-20.688,0-40.063-3.662-57.589-10.88c-17.526-7.221-33.752-18.227-48.232-32.717    c-14.488-14.479-25.494-30.706-32.712-48.231c-7.223-17.524-10.883-36.9-10.883-57.589c0-20.683,3.66-40.007,10.877-57.438    c7.215-17.423,18.212-33.507,32.692-47.804c14.479-14.307,30.706-25.178,48.232-32.31c17.538-7.139,36.923-10.758,57.614-10.758    c20.689,0,40.022,3.619,57.464,10.753c17.422,7.128,33.508,17.991,47.804,32.29c14.298,14.296,25.16,30.38,32.288,47.804    c7.136,17.441,10.753,36.774,10.753,57.463C404.931,276.862,401.356,296.155,394.307,313.514z"/><path fill="#FFF" d="M256.318,181.686c-20.784,0-38.713,7.302-53.288,21.704c-14.598,14.413-21.999,32.273-21.999,53.085    c0,20.802,7.394,38.736,21.976,53.311c14.572,14.581,32.51,21.975,53.312,21.975c20.801,0,38.746-7.568,53.333-22.496    c14.236-14.247,21.454-32.009,21.454-52.789c0-20.792-7.31-38.645-21.726-53.062C294.964,188.995,277.11,181.686,256.318,181.686z    "/></g></g></svg>