<svg xmlns="http://www.w3.org/2000/svg" xmlns:xlink="http://www.w3.org/1999/xlink" version="1.1" x="0px" y="0px" viewBox="0 0 100 100" enable-background="new 0 0 100 100" xml:space="preserve"><circle fill="#FFF" cx="30.4" cy="40.3" r="2.4"/><path fill="#FFF" d="M81.3,61.3h-63c-0.6,0-1-0.4-1-1V34c0-0.6,0.4-1,1-1h63c0.6,0,1,0.4,1,1v26.3C82.3,60.8,81.9,61.3,81.3,61.3z M19.3,59.3h61  V35h-61V59.3z"/><path fill="#FFF" d="M30.1,61.2c-0.3,0-0.5-0.1-0.7-0.3c-0.4-0.4-0.4-1,0-1.4L41,47.9c0.2-0.2,0.4-0.3,0.7-0.3l0,0c0.3,0,0.5,0.1,0.7,0.3  l11.3,11.3c0.4,0.4,0.4,1,0,1.4s-1,0.4-1.4,0L41.7,50L30.8,60.9C30.6,61.1,30.4,61.2,30.1,61.2z"/><path fill="#FFF" d="M74.5,61.2c-0.3,0-0.5-0.1-0.7-0.3L55.6,42.7l-9.9,9.9c-0.4,0.4-1,0.4-1.4,0s-0.4-1,0-1.4l10.6-10.6c0.4-0.4,1-0.4,1.4,0  l18.9,18.9c0.4,0.4,0.4,1,0,1.4C75,61.1,74.8,61.2,74.5,61.2z"/><path fill="#FFF" d="M21.2,75.9c-0.3,0-0.5-0.1-0.7-0.3c-0.4-0.4-0.4-1,0-1.4l3.8-3.8c0.2-0.2,0.4-0.3,0.7-0.3l0,0c0.3,0,0.5,0.1,0.7,0.3  l3.7,3.7c0.4,0.4,0.4,1,0,1.4s-1,0.4-1.4,0l-3-3l-3.1,3.1C21.7,75.8,21.4,75.9,21.2,75.9z"/><path fill="#FFF" d="M35.6,75.9c-0.3,0-0.5-0.1-0.7-0.3l-5.4-5.4l-2.7,2.7c-0.4,0.4-1,0.4-1.4,0s-0.4-1,0-1.4l3.4-3.4c0.4-0.4,1-0.4,1.4,0  l6.1,6.1c0.4,0.4,0.4,1,0,1.4C36.2,75.8,35.9,75.9,35.6,75.9z"/><path fill="#FFF" d="M43.8,75.9c-0.3,0-0.5-0.1-0.7-0.3c-0.4-0.4-0.4-1,0-1.4l3.8-3.8c0.2-0.2,0.4-0.3,0.7-0.3l0,0c0.3,0,0.5,0.1,0.7,0.3  l3.7,3.7c0.4,0.4,0.4,1,0,1.4s-1,0.4-1.4,0l-3-3l-3.1,3.1C44.3,75.8,44,75.9,43.8,75.9z"/><path fill="#FFF" d="M58.2,75.9c-0.3,0-0.5-0.1-0.7-0.3l-5.4-5.4l-2.7,2.7c-0.4,0.4-1,0.4-1.4,0s-0.4-1,0-1.4l3.4-3.4c0.4-0.4,1-0.4,1.4,0  l6.1,6.1c0.4,0.4,0.4,1,0,1.4C58.7,75.8,58.5,75.9,58.2,75.9z"/><path fill="#FFF" d="M66.9,75.9c-0.3,0-0.5-0.1-0.7-0.3c-0.4-0.4-0.4-1,0-1.4l3.8-3.8c0.4-0.4,1-0.4,1.4,0l3.7,3.7c0.4,0.4,0.4,1,0,1.4  s-1,0.4-1.4,0l-3-3l-3.1,3.1C67.4,75.8,67.1,75.9,66.9,75.9z"/><path fill="#FFF" d="M81.3,75.9c-0.3,0-0.5-0.1-0.7-0.3l-5.4-5.4l-2.7,2.7c-0.4,0.4-1,0.4-1.4,0s-0.4-1,0-1.4l3.4-3.4c0.4-0.4,1-0.4,1.4,0  l6.1,6.1c0.4,0.4,0.4,1,0,1.4C81.8,75.8,81.6,75.9,81.3,75.9z"/><path fill="#FFF" d="M14.6,52.2c-0.3,0-0.5-0.1-0.7-0.3l-2.6-2.6c-0.4-0.4-0.4-1,0-1.4l2.6-2.6c0.4-0.4,1-0.4,1.4,0s0.4,1,0,1.4l-1.9,1.9  l1.9,1.9c0.4,0.4,0.4,1,0,1.4C15.1,52.1,14.8,52.2,14.6,52.2z"/><path fill="#FFF" d="M84.9,52.2c-0.3,0-0.5-0.1-0.7-0.3c-0.4-0.4-0.4-1,0-1.4l1.9-1.9l-1.9-1.9c-0.4-0.4-0.4-1,0-1.4s1-0.4,1.4,0l2.6,2.6  c0.4,0.4,0.4,1,0,1.4l-2.6,2.6C85.4,52.1,85.2,52.2,84.9,52.2z"/><path fill="#FFF" d="M90,82.5H10c-1.7,0-3-1.3-3-3v-59c0-1.7,1.3-3,3-3h80c1.7,0,3,1.3,3,3v59C93,81.2,91.7,82.5,90,82.5z M10,19.5  c-0.6,0-1,0.4-1,1v59c0,0.6,0.4,1,1,1h80c0.6,0,1-0.4,1-1v-59c0-0.6-0.4-1-1-1H10z"/><path fill="#FFF" d="M91,27H8c-0.6,0-1-0.4-1-1s0.4-1,1-1h83c0.6,0,1,0.4,1,1S91.6,27,91,27z"/><circle fill="#FFF" cx="12.4" cy="22.6" r="1.3"/><circle fill="#FFF" cx="17.2" cy="22.6" r="1.3"/><circle fill="#FFF" cx="21.9" cy="22.6" r="1.3"/><path fill="#FFF" d="M35.6,76.2H18.3c-0.6,0-1-0.4-1-1v-10c0-0.6,0.4-1,1-1h17.3c0.6,0,1,0.4,1,1v10C36.6,75.7,36.2,76.2,35.6,76.2z M19.3,74.2  h15.3v-8H19.3V74.2z"/><path fill="#FFF" d="M81.3,76.2H64c-0.6,0-1-0.4-1-1v-10c0-0.6,0.4-1,1-1h17.3c0.6,0,1,0.4,1,1v10C82.3,75.7,81.9,76.2,81.3,76.2z M65,74.2h15.3  v-8H65V74.2z"/><pat fill="#FFF" d="M58.5,76.2H41.2c-0.6,0-1-0.4-1-1v-10c0-0.6,0.4-1,1-1h17.3c0.6,0,1,0.4,1,1v10C59.5,75.7,59,76.2,58.5,76.2z M42.2,74.2  h15.3v-8H42.2V74.2z"/></svg>
